<?xml version="1.0" encoding="UTF-8"?>
<svg width="32" height="32" viewBox="0 0 32 32" fill="none" xmlns="http://www.w3.org/2000/svg">
  <rect width="32" height="32" rx="8" fill="#2563eb"/>
  <path d="M8 12c0-2.828 0-4.243.879-5.121C9.757 6 11.172 6 14 6h4c2.828 0 4.243 0 5.121.879C24 7.757 24 9.172 24 12v8c0 2.828 0 4.243-.879 5.121C22.243 26 20.828 26 18 26h-4c-2.828 0-4.243 0-5.121-.879C8 24.243 8 22.828 8 20v-8z" fill="#fff"/>
  <circle cx="13" cy="14" r="1.5" fill="#2563eb"/>
  <circle cx="19" cy="14" r="1.5" fill="#2563eb"/>
  <path d="M12 19c1 1.5 3 1.5 4 0s3-1.5 4 0" stroke="#2563eb" stroke-width="1.5" stroke-linecap="round"/>
</svg>